<svg id="logo" xmlns="http://www.w3.org/2000/svg" viewBox="0 0 154 114"><path id="logo-2" data-name="logo" d="M41.15,151.45H38.68v5.45h1.17v-1.77h1.3a1.85,1.85,0,1,0,0-3.68ZM41,154.06H39.85v-1.54H41c.58,0,1,.3,1,.77S41.6,154.06,41,154.06Zm7.24-2.71a2.83,2.83,0,1,0,2.92,2.82A2.91,2.91,0,0,0,48.26,151.35Zm0,4.59A1.76,1.76,0,1,1,50,154.17,1.76,1.76,0,0,1,48.26,155.94Zm11.85-4.49h1.28l-1.66,5.45H58.55l-1.3-3.74L56,156.9H54.76l-1.67-5.45h1.28l1,3.66,1.21-3.66h1.28l1.22,3.66Zm3.59,0h4.23v1.06h-3v1.08h2.75v1.06H64.89v1.2h3v1.05H63.7ZM75,153.29a1.9,1.9,0,0,0-2.07-1.84H70.43v5.45h1.18v-1.77h.87l1.25,1.77h1.34L73.72,155A1.77,1.77,0,0,0,75,153.29Zm-2.2.77H71.61v-1.54h1.16c.59,0,1,.3,1,.77S73.36,154.06,72.77,154.06Zm4.68-2.61h4.23v1.06h-3v1.08H81.4v1.06H78.64v1.2h3v1.05H77.45Zm8.75,0h-2v5.45h2c1.84,0,3.15-1.13,3.15-2.73S88,151.45,86.2,151.45Zm.15,4.39h-.94v-3.33h.94a1.67,1.67,0,1,1,0,3.33ZM99.43,154a1.31,1.31,0,0,0,.76-1.21,1.47,1.47,0,0,0-1.66-1.37H95.75v5.45h2.89c1,0,1.79-.6,1.79-1.47A1.53,1.53,0,0,0,99.43,154Zm-2.51-1.58h1.32c.44,0,.75.25.75.6s-.31.6-.75.6H96.92Zm1.5,3.45h-1.5v-1.33h1.5a.72.72,0,0,1,.81.67C99.23,155.63,98.89,155.9,98.42,155.9Zm8.13-4.45h1.32l-2.15,3.49v2h-1.19v-2l-2.15-3.49h1.38l1.36,2.39Zm8.33,2.72a1.76,1.76,0,0,0,1.7,1.77,1.74,1.74,0,0,0,1.28-.61l.85.76a3,3,0,0,1-2.13.91,2.83,2.83,0,1,1,2.13-4.73l-.85.76a1.68,1.68,0,0,0-3,1.14Zm8.75-2.82a2.83,2.83,0,1,0,2.92,2.82A2.91,2.91,0,0,0,123.63,151.35Zm0,4.59a1.76,1.76,0,1,1,1.71-1.77A1.77,1.77,0,0,1,123.63,155.94Zm5.39-4.49h4.23v1.06H130.2v1.18H133v1.06H130.2v2.15H129Zm6.67,0h4.23v1.06h-3v1.18h2.75v1.06h-2.75v2.15h-1.19Zm6.67,0h4.23v1.06h-3v1.08h2.76v1.06h-2.76v1.2h3v1.05h-4.23Zm7.92,1.06v1.08H153v1.06h-2.75v1.2h3v1.05h-4.23v-5.45h4.23v1.06Zm-27.36-33.65c0-2.28,1.78-4.36,3.74-4.36a2.44,2.44,0,0,1,2.45,2.59c0,2.33-1.72,4.44-3.62,4.44A2.53,2.53,0,0,1,122.92,118.86ZM177,133.59c0,4-4.11,7.13-4.86,7.13a1.13,1.13,0,0,1-1.18-1.18,2.09,2.09,0,0,1,.42-1,3.76,3.76,0,0,0,.74-2c0-1.42-.94-2.24-2.57-2.24-3,0-6.16,1.53-9.19,3s-5.7,2.79-8.31,2.79c-3.08,0-5.4-1.86-5.4-4.32a12,12,0,0,1,1.73-5.55,5.72,5.72,0,0,0,.71-1.68,3.79,3.79,0,0,0-1.52-.41,37.48,37.48,0,0,1-3.67,7,10.86,10.86,0,0,1-9,4.94,7.41,7.41,0,0,1-6.28-3c-1.33,1.46-3.26,3-5.56,3a5.28,5.28,0,0,1-4.79-2.41,7.46,7.46,0,0,1-5,2.41c-3.13,0-5.4-1.83-5.4-4.36a14.48,14.48,0,0,1,1.13-4.91,10.79,10.79,0,0,0,.84-3.32s-.11-.13-.29-.13c-1.85,0-5.47,4.05-5.47,11.47a1.16,1.16,0,0,1-1.34,1.25c-2,0-3.52-.75-4-1.87a6.89,6.89,0,0,1-4.42,1.87c-3.08,0-5.4-1.86-5.4-4.32a12,12,0,0,1,1.73-5.55,5.72,5.72,0,0,0,.71-1.68,3.79,3.79,0,0,0-1.52-.41,37.8,37.8,0,0,1-3.67,7c-.12.2-3,4.94-7.06,4.94-2.92,0-4.24-1.35-4.84-2.49a7.87,7.87,0,0,1-5.15,2.49,4.87,4.87,0,0,1-4.19-2.78,9,9,0,0,1-4.79,1.36,9.75,9.75,0,0,1-1.38-.1,7.55,7.55,0,0,1-4.55,1.52c-3.53,0-6.52-2.7-6.52-5.9,0-6.47,4.91-10.48,9.47-10.48a5.91,5.91,0,0,1,6.17,6.17,11.1,11.1,0,0,1-2,6,5.87,5.87,0,0,0,3.47-1.92,51.69,51.69,0,0,1,2.85-9.19,1.65,1.65,0,0,1,1.49-1c1.29,0,3.54,1.7,3.54,2.68a11.72,11.72,0,0,1-1.07,3.87,16.68,16.68,0,0,0-1.45,5.78s0,.67.41.67c1,0,2.4-1.33,3-2.47a40.82,40.82,0,0,0,1.68-4.87c.55-1.77,1.12-3.6,1.56-4.63a1.69,1.69,0,0,1,1.53-1c1.25,0,3.51,1.73,3.51,2.68a11.54,11.54,0,0,1-.94,3.67,16.18,16.18,0,0,0-1.27,5.51c0,.37.1,1,.75,1,1.5,0,3.2-2.22,3.73-3.07l.11-.15a23.27,23.27,0,0,0,3.12-6.29,4.15,4.15,0,0,1-1.21-3c0-1.79,1.5-3.32,2.73-3.32s2.89,1.39,2.89,2.48a4.2,4.2,0,0,1-.33,1.54,2.56,2.56,0,0,0-.18.68c0,.14.41.33,1.15.33a6.5,6.5,0,0,0,2-.29,4.27,4.27,0,0,1,1.22-.21,2.19,2.19,0,0,1,2.07,2.33,8.13,8.13,0,0,1-1.17,3.14,11.68,11.68,0,0,0-1.69,5c0,.59.25.86.79.86,1.37,0,2.87-1.86,3.38-2.57a48.6,48.6,0,0,1,2.79-8.85,1.59,1.59,0,0,1,1.49-1c1,0,1.9.59,2.82,1.85a10.57,10.57,0,0,1,6-2.24,4.11,4.11,0,0,1,3.78,3.79,11.66,11.66,0,0,1-1,3.84,13,13,0,0,0-1.07,4.23c0,.37.1,1,.76,1,.91,0,2.07-.85,3.21-2.34a46.2,46.2,0,0,1,3-9.47,1.65,1.65,0,0,1,1.49-1c1.3,0,3.55,1.7,3.55,2.68a11.79,11.79,0,0,1-.92,3.67,16.41,16.41,0,0,0-1.25,5.51c0,.37.1,1,.75,1,1.35,0,2.81-1.78,3.35-2.52V134c0-6.25,5.2-10.25,8.77-10.25a4.76,4.76,0,0,1,4.74,4.52,6.38,6.38,0,0,1-1.43,3.84,6.58,6.58,0,0,1-5.36,2.33,6.31,6.31,0,0,1-1-.12,2.79,2.79,0,0,0,2.88,2.5c3.36,0,5.53-3.27,5.56-3.31l.1-.14a22.94,22.94,0,0,0,3.12-6.29,4.15,4.15,0,0,1-1.21-3c0-1.79,1.5-3.32,2.73-3.32s2.89,1.39,2.89,2.48a4.2,4.2,0,0,1-.33,1.54,2.56,2.56,0,0,0-.18.68c0,.12.35.33,1.15.33a6.5,6.5,0,0,0,2-.29,4.27,4.27,0,0,1,1.22-.21,2.19,2.19,0,0,1,2.07,2.33,8.13,8.13,0,0,1-1.17,3.14,11.7,11.7,0,0,0-1.7,5c0,.58.26.86.8.86,1.51,0,3.9-1.56,6.43-3.21,3.58-2.35,7.64-5,11.49-5C174.64,128.34,177,130.5,177,133.59Zm-39.58-6.94c-1.62,0-3.49,3-3.81,4.94,2.28-.42,4-3.42,4-4.66C137.63,126.65,137.52,126.65,137.42,126.65ZM57.17,134a17.17,17.17,0,0,0,1-5.44c0-1.29-.34-1.94-1-1.94-1.39,0-4,3.51-4,8.51,0,1,.36,2.13,1.37,2.13a1.5,1.5,0,0,0,.37,0,1.31,1.31,0,0,1-.31-.85A3,3,0,0,1,57.05,134Zm-6.8-8.44c0-1.87-1.84-1.87-2.73-1.87a19.76,19.76,0,0,0-3.29.3h0c0-.78.06-1.42.06-1.92,0-4.27,1.47-5.5,2.22-5.85.3,0,.61,0,.89,0,1.63,0,3.62-1.31,3.62-2.83a2.29,2.29,0,0,0-2.53-2.17,8.32,8.32,0,0,0-4.51,1.61,23.65,23.65,0,0,0-9.23-2c-3.75,0-8.11,1.45-8.11,5.52,0,3.37,4.07,5.44,6.29,5.44a1.16,1.16,0,0,0,1.29-1.21c0-.38-.27-.64-.62-1a3.39,3.39,0,0,1-1.31-2.64c0-1.46,1.39-2.44,3.46-2.44a17.54,17.54,0,0,1,5.83.84c-.65.81-1.72,2.61-2.32,6.18l-.47,2.85c-.84,0-1.63-.27-1.63-.7a2.05,2.05,0,0,1,.36-1.06,1.35,1.35,0,0,0,.23-.63.81.81,0,0,0-.88-.86c-1,0-4.27,1.71-4.27,4,0,1.49,1.41,2.52,3.42,2.52.35,0,.91-.06,1.62-.14l.51-.06c-1.47,6.08-3.7,9-6.81,9a3.07,3.07,0,0,1-3.12-3.09,5.42,5.42,0,0,1,2.46-3.95c.6-.39.91-.63.91-1.24s-.6-1.14-1.45-1.14c-2.45,0-7.26,2.5-7.26,5.52s4.07,7.4,9.7,7.4c4.37,0,9.85-2.25,11.37-12.86,1,.16,1.07.55,1.07,1a.92.92,0,0,0,1,.94A5.14,5.14,0,0,0,48.71,128C49.33,127.46,50.37,126.48,50.37,125.59ZM117,91c0-2.28,1.82-4.35,3.82-4.35a2.47,2.47,0,0,1,2.52,2.58c0,2.32-1.77,4.43-3.71,4.43A2.56,2.56,0,0,1,117,91Zm24,15a2.65,2.65,0,0,1-.43,1.17c-.13.21-3.33,5.21-11.65,5.21a8.52,8.52,0,0,1-6.33-3,8,8,0,0,1-5.5,2.76,5.43,5.43,0,0,1-4.9-2.4,7.76,7.76,0,0,1-5.14,2.4c-3.15,0-5.53-1.85-5.53-4.31a11.66,11.66,0,0,1,1.77-5.52,5.38,5.38,0,0,0,.73-1.68,4.07,4.07,0,0,0-1.57-.4,36.15,36.15,0,0,1-3.76,7c-.12.2-3.11,4.92-7.23,4.92-3.26,0-5.54-1.93-5.54-4.69a12.63,12.63,0,0,1,1.32-4.76,7.21,7.21,0,0,0,.75-2.21c0-.63-.22-.63-.38-.63-2.23,0-5.46,3.93-5.46,11a1.12,1.12,0,0,1-1.21,1.24c-1.6,0-3.91-.56-4.32-2.06a12.91,12.91,0,0,1-7.94,2.79c-5.17,0-10.74-3-10.74-9.75a16.09,16.09,0,0,1,.53-3.94C54,98,51,95.46,51,92.71c0-4.53,6.35-8,9-8,1.11,0,1.17.75,1.17.9,0,.55-.39.82-.8,1.12l-.16.11a5.77,5.77,0,0,0-2.89,5,4.05,4.05,0,0,0,2.42,3.88c3.18-6.87,10-12.59,15.22-12.59A6.53,6.53,0,0,1,81.08,89c0,4.27-6.27,10.57-16.13,10.92a15.89,15.89,0,0,0-.38,3.4c0,4.41,1.67,6.37,5.42,6.37a9.85,9.85,0,0,0,6.94-3.71c1.17-6.91,6-21.75,13-21.75A4.48,4.48,0,0,1,94,88c0,2.4-2.56,6-4.16,8a6.52,6.52,0,0,1,1.65-.22,3.33,3.33,0,0,1,3,3.12,11.3,11.3,0,0,1-1.2,4A12.85,12.85,0,0,0,92,107.68c0,.37.1,1,.78,1,1.52,0,3.28-2.22,3.82-3.07l.11-.15a22.6,22.6,0,0,0,3.2-6.26,4.07,4.07,0,0,1-1.24-3,3.35,3.35,0,0,1,2.8-3.32c1.3,0,3,1.39,3,2.47a4.3,4.3,0,0,1-.33,1.55,2.1,2.1,0,0,0-.18.67c0,.11.35.33,1.17.33a7.17,7.17,0,0,0,2-.29,4.48,4.48,0,0,1,1.25-.21,2.2,2.2,0,0,1,2.12,2.32,7.85,7.85,0,0,1-1.2,3.13,11.54,11.54,0,0,0-1.73,5c0,.58.26.86.81.86,1.3,0,2.68-1.56,3.3-2.34a43.19,43.19,0,0,1,3-9.43,1.67,1.67,0,0,1,1.52-1c1.32,0,3.63,1.69,3.63,2.66a11.55,11.55,0,0,1-.94,3.66,16.07,16.07,0,0,0-1.28,5.49c0,.37.1,1,.77,1s1.84-.66,2.89-1.84a2.9,2.9,0,0,1-.05-.48c0-2.28,3.15-3.26,4-3.48L127.79,99c1.84-2.64,3.24-3.81,4.54-3.81,1,0,2.44,1.19,2.44,1.89a2.37,2.37,0,0,1-.42,1.1,3.21,3.21,0,0,0-.53,1.43,9.06,9.06,0,0,0,.81,3.59,7.73,7.73,0,0,1,.74,3,5.55,5.55,0,0,1-.36,2,9.22,9.22,0,0,0,3.46-2.73,1.54,1.54,0,0,1,1.2-.74A1.31,1.31,0,0,1,141,106.07Zm-13,3.74c.92,0,1.72-1.28,1.72-2.74a12.06,12.06,0,0,0-.64-3.17c-.15-.5-.29-1-.4-1.46a30.31,30.31,0,0,0-2.14,3.53C126.52,107.71,126.9,109.81,128,109.81ZM90.82,87.72c-.68,0-2.73,2.64-5.53,9.57,2.64-2.82,5.79-7.54,5.79-9.29C91.08,87.74,91,87.72,90.82,87.72ZM76.4,87.66a.93.93,0,0,0-1.06-1c-3,0-7.18,4.47-9.35,9.91C72.37,96,76.4,91,76.4,87.66Zm-20.63-13,.35.85h1.33L55.21,70H53.89l-2.24,5.45H53l.35-.85Zm-1.22-3,.81,2H53.73Zm9.77.45-1.69,3.08-1.71-3.08v3.39H59.75V70h1.17l1.71,3.08L64.32,70h1.19v5.45H64.32Zm8.15,3.39H68.24V70h4.23v1.06h-3v1.08h2.76v1.06H69.42v1.2h3Zm7.14,0-1.35-1.9a1.78,1.78,0,0,0,1.25-1.71A1.9,1.9,0,0,0,77.44,70H75v5.45h1.17V73.7H77l1.26,1.77Zm-2.3-2.84H76.14V71.09h1.17c.58,0,1,.3,1,.77S77.89,72.63,77.31,72.63ZM82,70h1.19v5.45H82Zm4.88,2.72a1.77,1.77,0,0,0,1.71,1.77,1.72,1.72,0,0,0,1.28-.62l.85.77a3,3,0,0,1-2.13.91,2.83,2.83,0,1,1,2.13-4.73l-.85.76A1.71,1.71,0,0,0,88.59,71,1.76,1.76,0,0,0,86.88,72.74Zm10.2,2.73h1.33L96.17,70H94.85l-2.24,5.45h1.32l.35-.85h2.45Zm-2.39-1.85.82-2,.81,2Zm9.84,1.85L101.88,72v3.52h-1.17V70h1.17l2.65,3.52V70h1.18v5.45Zm10.68-.31-1.7-3.08v3.39h-1.18V70h1.18l1.7,3.08,1.7-3.08h1.18v5.45h-1.18V72.08Zm6.84-.54h2.45l.35.85h1.33L123.94,70h-1.32l-2.24,5.45h1.32Zm1.23-3,.81,2h-1.63ZM130.44,70h-2v5.45h2c1.85,0,3.16-1.13,3.16-2.73S132.29,70,130.44,70Zm.16,4.39h-.95V71.08h.95a1.67,1.67,0,1,1,0,3.33ZM136.12,70h4.23v1.06h-3v1.08h2.76v1.06H137.3v1.2h3v1h-4.23Zm-42.18-9a1.16,1.16,0,0,0-.15.43,1.73,1.73,0,0,1-.14.42.65.65,0,0,1-.24.24,3.57,3.57,0,0,1-.48.28,3.49,3.49,0,0,1-.53.24,1.11,1.11,0,0,1-.38.1h-.1s0,0-.08-.06a.69.69,0,0,1-.14-.12c-.06-.06-.12-.11-.17-.17l-.15-.14-.06-.07v-.09h.14l.08,0,.07,0h.1a.69.69,0,0,0,0-.2.64.64,0,0,1,0-.2.93.93,0,0,1,0-.13s0,0,.06,0l.06-.07a.48.48,0,0,0,0-.25h-.3v-.54a1,1,0,0,0-.34.06,1,1,0,0,1-.34.06l-.08,0s0,0,0-.07v0l.08-.11.09-.12-.06-.05a.23.23,0,0,1,0,0h0l-.17,0-.13.07-.13.07a.76.76,0,0,1-.18.06.39.39,0,0,1-.15,0,.85.85,0,0,1-.17-.06l-.17-.08-.13-.06h-.06l-.22.08-.33.14-.32.14-.21.09-.29.11a1.19,1.19,0,0,1-.32,0h-.1s0,0,0-.1h-.28v-.25H87.1l-.08,0s0,0,0-.08v0l.34-.22a.32.32,0,0,0-.08-.06l-.09-.07h0a.12.12,0,0,1,.08-.12.74.74,0,0,1,.19-.05l.19-.06a.15.15,0,0,0,.12-.12h-.32a.39.39,0,0,1,0-.09.32.32,0,0,1,.16-.1l.23-.06.25,0,.21-.06a.44.44,0,0,0-.19-.07.24.24,0,0,1-.15-.1l.05-.06h.06l.13,0h.27l.44,0,.65,0,.65,0,.43,0a1.66,1.66,0,0,0,.53-.19c.15-.08.3-.16.44-.25a5.05,5.05,0,0,1,.45-.25,1.91,1.91,0,0,1,.51-.17h.12l.11,0-.16,0H92L91.75,58a.18.18,0,0,1-.15-.17.24.24,0,0,1,.07-.19.28.28,0,0,0,.06-.18v-.05a.06.06,0,0,1,0,0l-.25-.07a.9.9,0,0,1-.22-.1.52.52,0,0,1-.16-.17.46.46,0,0,1-.06-.25.34.34,0,0,1,0-.09v-.06l0-.13a1.24,1.24,0,0,0,.1-.2,1.18,1.18,0,0,1,.11-.19c0-.06.06-.1.07-.13h-.62s0,0,0,0l0,0V55.8a.19.19,0,0,1,0-.08.28.28,0,0,1,0-.09v-.06a.24.24,0,0,1-.18-.06.26.26,0,0,1-.1-.11.38.38,0,0,1-.06-.13s0-.08-.07-.09a.27.27,0,0,0-.16-.06.63.63,0,0,1-.23,0q-.08,0-.06-.3h-.23l-.11,0s-.06,0-.06,0v-.28a.87.87,0,0,1-.33,0c-.07,0-.12-.13-.13-.29h-.07a.79.79,0,0,1-.2,0,.21.21,0,0,1-.18-.1.73.73,0,0,1,0-.08.41.41,0,0,0,0-.09l-.15-.05-.17,0a.4.4,0,0,1-.13-.07.22.22,0,0,1-.06-.17.29.29,0,0,1,0-.14.37.37,0,0,0,0-.12v0h-.07l-.13,0-.12,0h-.08a.16.16,0,0,1-.12-.15.45.45,0,0,0,0-.2l-.17-.16a.19.19,0,0,1,0-.09.46.46,0,0,0,0-.09,1.06,1.06,0,0,0-.18-.13l-.24-.15a1.2,1.2,0,0,1-.2-.18.22.22,0,0,1-.06-.21,1.34,1.34,0,0,1-.38-.14.7.7,0,0,1-.3-.26l0-.11a.19.19,0,0,0,0-.08s0,0,0,0a.4.4,0,0,0-.2-.07l-.25,0a.59.59,0,0,1-.23-.13.61.61,0,0,1-.17-.3s0,0,0-.1a.66.66,0,0,0,0-.13v0a.48.48,0,0,0-.16-.12l-.22-.07a1,1,0,0,1-.23-.13.68.68,0,0,1-.19-.26.18.18,0,0,0,0,0s0-.07,0-.11,0-.07,0-.1a.26.26,0,0,1,0-.07.36.36,0,0,0-.18-.12l-.24-.06a1.38,1.38,0,0,1-.28-.13,1.09,1.09,0,0,1-.33-.32c0-.08,0-.14,0-.18a.37.37,0,0,0-.13-.12l-.15-.1s0-.09,0-.17l-.09,0-.14-.07L82.4,48l-.09,0,0,0s0,0,0,0l.12-.12h1.42s0,0-.08,0l-.09,0-.24,0L83,47.62l-.39-.08-.24-.06-.11,0a.1.1,0,0,1-.06-.1v0l.06,0s0,0,0,0H84l-2.12-.7s0,0,0,0a.08.08,0,0,1,0,0v0s0,0,.09,0l.08,0a14,14,0,0,1,2,.38,17.92,17.92,0,0,1,2,.64h.12L82,45.15A.11.11,0,0,1,81.9,45h.24a.53.53,0,0,1,.23.06l.3.1.38.15.41.15.39.15.3.12.15.06.33.15.48.23.57.27.56.27.48.23.32.15h.09l-4.31-2.89-.08-.08a.73.73,0,0,0-.09-.09.18.18,0,0,1,0-.06h.13l.8.41,4.5,2.71h.18l-.08-.08-.1-.08-.18-.15-.3-.26c-.12-.1-.25-.21-.37-.33l-.38-.32-.3-.26-.17-.16a2.47,2.47,0,0,1-.3-.27l-.43-.43-.43-.43-.27-.29-.11-.13-.2-.24-.21-.26-.17-.21a.43.43,0,0,1-.07-.23h.07l2.28,2s0,0,.06.06l3,2.49v-.06L89.07,47l-.48-.57-.45-.59a5.84,5.84,0,0,1-.41-.64l-.14-.24-.15-.29a1.88,1.88,0,0,1-.12-.3,1,1,0,0,1,0-.28.06.06,0,0,1,0,0v0l.11.12L90,47.59a4.88,4.88,0,0,0,.87.89,10,10,0,0,0,1.05.75c.36.23.73.45,1.1.67a11.53,11.53,0,0,1,1,.69l.06.07.11.11.11.11.07,0,.16.08.16.08.17.1.12.08a2.23,2.23,0,0,1,.34.35c.1.13.19.27.28.4l.27.4a1.85,1.85,0,0,0,.31.37,2.15,2.15,0,0,0,.41-.32,4.4,4.4,0,0,1,.39-.35,1.47,1.47,0,0,1,.37-.24l.38-.22a1.21,1.21,0,0,0,.24-.21.56.56,0,0,1,.27-.18h.06a.2.2,0,0,0,.08,0h0V51a.23.23,0,0,1,.12-.16.93.93,0,0,1,.25-.1l.25-.06h.18a.56.56,0,0,1,0-.3.22.22,0,0,1,.1-.14.31.31,0,0,1,.17,0h.2a.59.59,0,0,0,.19,0,.2.2,0,0,0,.13-.11.2.2,0,0,0,0-.14.2.2,0,0,1,0-.1.12.12,0,0,1,0-.1.44.44,0,0,1,.17-.06h.31l.18,0h.13a1,1,0,0,1,.12-.44.42.42,0,0,1,.4-.18,1,1,0,0,1,.29,0l.26.12.26.11a.58.58,0,0,0,.26.06.72.72,0,0,0-.11-.36,1.7,1.7,0,0,1-.17-.32c0-.07.05-.11.1-.11h.14a1.71,1.71,0,0,1,.55.09,2.45,2.45,0,0,1,.5.22,4.63,4.63,0,0,1,.46.31l.42.35v0a1.09,1.09,0,0,0,0-.26c0-.09-.07-.18-.1-.26l-.1-.25a.81.81,0,0,1,0-.27.14.14,0,0,1,.1-.15.38.38,0,0,1,.17,0,.91.91,0,0,1,.44.12,2.59,2.59,0,0,1,.39.25l.33.25a.39.39,0,0,0,.23.12,3.44,3.44,0,0,0,0-.46,3.59,3.59,0,0,1,0-.47v-.19a.23.23,0,0,1,.11-.08l.12,0a.73.73,0,0,1,.43.12,1,1,0,0,1,.28.32,1.5,1.5,0,0,1,.15.42,3.49,3.49,0,0,1,0,.44l0,0,0,0H107l0-.26c0-.12.06-.25.1-.4s.09-.3.15-.45a2.53,2.53,0,0,1,.19-.44.93.93,0,0,1,.23-.31.42.42,0,0,1,.29-.13.21.21,0,0,1,.15,0,.34.34,0,0,1,0,.18v.23a.61.61,0,0,0,0,.14v.08a3.46,3.46,0,0,1-.09.78,3.22,3.22,0,0,0-.09.76v.1l.25-.51.24-.47c.08-.15.16-.3.25-.45l.28-.49.12-.17a.86.86,0,0,1,.14-.18.65.65,0,0,1,.18-.15.36.36,0,0,1,.2-.06.14.14,0,0,1,.14.08.41.41,0,0,1,0,.16,3.14,3.14,0,0,1-.22,1.16c-.15.39-.3.75-.46,1.08v.06l.73-.74.09,0,.08,0a.16.16,0,0,1,.15.07.33.33,0,0,1,0,.17c0,.06,0,.11,0,.14a.37.37,0,0,1,0,.11.66.66,0,0,1-.08.13l-.1.17a4.57,4.57,0,0,1-.92,1.16,10.41,10.41,0,0,1-1.18.89c-.42.26-.85.52-1.3.76a14.87,14.87,0,0,0-1.28.76l-.14.11-.14.11a13.42,13.42,0,0,0-1.5,1.7,7.57,7.57,0,0,0-1.07,2v.09a.34.34,0,0,0,0,.11.15.15,0,0,0,0,.08l.71.34a4.53,4.53,0,0,1,.66.41,2.43,2.43,0,0,1,.54.52,1.81,1.81,0,0,1,.31.72s0,0,0,.09a.71.71,0,0,0,0,.14c0,.05,0,.1,0,.14v.09a2.29,2.29,0,0,0,.15.42,1,1,0,0,1,.09.43.5.5,0,0,1-.19.4.59.59,0,0,1-.41.16h-.09a.15.15,0,0,0,0-.06.14.14,0,0,0,0-.06l0,0,0-.06a5.22,5.22,0,0,0-.44-.42,1.49,1.49,0,0,0-.38-.22,1.56,1.56,0,0,0-.44-.08h-.62a4,4,0,0,0-.89.09c-.26.07-.51.14-.76.23l-.75.3a6.88,6.88,0,0,1-.84.28,4.13,4.13,0,0,1-.75.15l-.76,0c-.57,0-1.14,0-1.69-.08a15.81,15.81,0,0,0-1.69-.09h-.37Zm-5.87-8s0,0,0,.06,0,.06,0,.06.05,0,.05-.06S88.1,53.08,88.07,53.08Zm19.84-3.57s0,0,0,0,0,0,0,0a0,0,0,0,0,0-.06Z" transform="translate(-23 -43)" style="fill:#384332"/></svg>